<?xml version="1.0" encoding="UTF-8"?>
<svg width="1440px" height="108px" viewBox="0 0 1440 108" version="1.1" xmlns="http://www.w3.org/2000/svg" xmlns:xlink="http://www.w3.org/1999/xlink">
    <!-- Generator: Sketch 48.2 (47327) - http://www.bohemiancoding.com/sketch -->
    <title>Fill 1</title>
    <desc>Created with Sketch.</desc>
    <defs></defs>
    <g id="Principles" stroke="none" stroke-width="1" fill="none" fill-rule="evenodd" transform="translate(0.000000, -192.000000)">
        <g id="Page-1" fill="#F1F3FA">
            <path d="M1440.008,235.683084 C1369.367,287.934859 1277.248,301.013739 1191.766,297.608563 C1149.178,295.912143 1106.833,290.596696 1064.572,285.17535 C967.106,272.673253 869.654,259.948051 772.316,246.421934 C717.359,238.78599 661.167,231.960215 605.894,240.280895 C551.653,248.445299 500.503,269.603248 447.898,284.505008 C398.27,298.564726 345.872,304.557714 295.174,292.781478 C270.229,286.986921 246.781,276.862895 224.873,263.370706 C184.064,238.239023 148.345,209.807033 99.679,203.557013 C65.737,199.198757 30.811,204.613934 0,219.552706 L0.498,192 L1440.008,192 L1440.008,235.683084 Z" id="Fill-1"></path>
        </g>
    </g>
</svg>