<svg xmlns="http://www.w3.org/2000/svg" viewBox="1912 225.5 414.504 277.019"><defs><style>.a,.d{fill:#a4a8bf;}.a{stroke:rgba(0,0,0,0);}.b,.c{fill:#f7f7fa;}.b,.d{font-size:24px;font-family:Inconsolata-Regular, Inconsolata;}.e{font-family:PingFangSC-Regular, PingFang SC;}</style></defs><g transform="translate(1436)"><path class="a" d="M333.54,55.806q.006-.273.006-.547V20.708C333.547,9.277,325.278,0,315.079,0H18.468C8.266,0,0,9.271,0,20.708V55.259C0,66.69,8.268,75.967,18.468,75.967H315.079a17.138,17.138,0,0,0,11.171-4.216C333.292,77.028,339.7,75.9,339.7,75.9c.337-.033.4-.257.139-.489,0,0-6.171-5.106-6.291-9.94s0-9.669,0-9.669Z" transform="translate(550 226)"/><text class="b" transform="translate(566 272)"><tspan x="0" y="0">Hi! I’m Michael</tspan></text><path class="c" d="M-233.548,403.825v-35.1c0-11.469,8.556-20.727,19.156-20.727h295c10.6,0,19.156,9.258,19.156,20.727v34.545C99.761,414.742,91.2,424,80.6,424h-295a17.658,17.658,0,0,1-11.621-4.284c-7.279,5.251-13.92,4.146-13.92,4.146-.383,0-.383-.276-.128-.553,0,0,6.385-5.113,6.513-9.949.128-4.7,0-9.535,0-9.535Z" transform="translate(716.239 -22)"/><text class="d" transform="translate(497.729 372.436)"><tspan x="0" y="0">Nice to meet you, Mike</tspan></text><g transform="translate(-173)"><path class="a" d="M333.54,55.806q.006-.273.006-.547V20.708C333.547,9.277,325.278,0,315.079,0H202.008c-10.2,0-18.468,9.271-18.468,20.708V55.259c0,11.431,8.268,20.708,18.468,20.708H315.079a17.138,17.138,0,0,0,11.171-4.216C333.292,77.028,339.7,75.9,339.7,75.9c.337-.033.4-.257.139-.489,0,0-6.171-5.106-6.291-9.94s0-9.669,0-9.669Z" transform="translate(723 426)"/><text class="b" transform="translate(923 473)"><tspan x="0" y="0">¯\_(</tspan><tspan class="e" y="0">ツ</tspan><tspan y="0">)_/¯</tspan></text></g></g></svg>