<svg xmlns="http://www.w3.org/2000/svg" viewBox="193 442 160 160"><defs><style>.a{fill:none;}.b{fill:#a4a8bf;}</style></defs><g transform="translate(193 442)"><rect class="a" width="160" height="160"/><path class="b" d="M105.5,120.2l-.6,17.7a68.852,68.852,0,0,1-28.2,5.9c-12.9,0-24-2.8-33.6-8.4-9.5-5.6-16.6-12.9-21.2-21.8A63.713,63.713,0,0,1,15,83.9a65.326,65.326,0,0,1,9.4-34.3A68.973,68.973,0,0,1,84,16.2a68.189,68.189,0,0,1,29.9,6.6,54.732,54.732,0,0,1,22.4,19.8c5.8,8.8,8.6,18.9,8.6,30.3,0,11.3-2.9,20.8-8.6,28.4s-12.6,11.4-20.7,11.4c-11.3,0-18.7-5.2-22-15.7a22.724,22.724,0,0,1-21.9,15.6c-7.8,0-13.9-3-18.4-8.9S46.5,90.6,46.5,82c0-10,2.9-18,8.8-24.1S68.1,48.8,76,48.8c7.8,0,13.5,3.5,17.3,10.5.4-4.7.6-8.1.7-10.2h16.7l-.1,2.9c-1.2,17.3-1.7,26.9-1.7,28.9,0,10.4,2.4,15.6,7.3,15.6,3.4,0,6.1-2,8.2-6s3.2-9.4,3.2-16.2c0-13.6-4.2-23.9-12.5-30.8S96.2,33.1,83.2,33.1A48.594,48.594,0,0,0,39.3,59.6a54.977,54.977,0,0,0-5.9,24.9c0,13,4.1,23.3,12.4,30.9s18.5,11.4,30.7,11.4A63.813,63.813,0,0,0,105.5,120.2ZM77.8,97.6a13.015,13.015,0,0,0,8.9-3.7c2.7-2.4,4.6-6,5.5-10.6,0-.6,0-1.5.1-2.9,0-1.3.1-2.3.1-2.9-.6-4.5-2.1-7.9-4.5-10.3a11.411,11.411,0,0,0-8.4-3.5,13.159,13.159,0,0,0-10.3,5C66.4,72.2,65,76.9,65,83a15.208,15.208,0,0,0,3.8,10.7A12.363,12.363,0,0,0,77.8,97.6Z"/></g></svg>