<svg height="238" viewBox="0 0 248 238" width="248" xmlns="http://www.w3.org/2000/svg" xmlns:xlink="http://www.w3.org/1999/xlink"><mask id="a" fill="#fff"><path d="m.00020324.84256187h261.93450376v235.15743813h-261.93450376z" fill="#fff" fill-rule="evenodd"/></mask><mask id="b" fill="#fff"><path d="m.66063924.008h207.40663276v229.876486h-207.40663276z" fill="#fff" fill-rule="evenodd"/></mask><g fill="none" fill-rule="evenodd" transform="matrix(-.06975647 .99756405 -.99756405 -.06975647 258.840912 -4.170601)"><path d="m258.2717 62.7509c-2.409-8.578-6.157-16.732-11.68-24.039-17.653-23.36-45.793-26.119-77.69-26.926-16.301-.412-32.351-2.481-47.688-6.147-10.521-2.515-21.181-5.816-32.442-4.495-6.718.787-13.223 3.204-19.169 6.279-12.314 6.369-22.318 15.689-28.932 26.331-6.529 10.509-8.262 21.921-15.55 32.608-6.125 8.982-13.136 17.7-17.375 27.287-8.767 19.825 7.907 37.871-.785 57.38-1.866 4.191-4.682 8.16-6.02 12.45-2.001 6.412-.522 12.951 1.754 18.958 8.186 21.609 26.968 39.57 51.381 49.135 29.242 11.456 51.037-.745 73.331-20.24 17.139-14.987 33.265-24.094 54.552-31.435 22.448-7.74 46.011-10.51 61.881-30.296 13.79-17.191 18.091-38.003 18.095-57.741.003-9.84-1.029-19.728-3.663-29.109" fill="#fe4f7f" fill-opacity=".1" mask="url(#a)" transform="matrix(.01745241 .9998477 -.9998477 .01745241 247.085085 -6.600883)"/><path d="m4.01110162 71.4438283c-1.373 2.448-2.111 5.205-2.574 7.973-5.247 31.3289997 22.77299998 59.4779997 23.30199998 91.2379997.196 11.753-3.393 23.864.234 35.045 5.199 16.029 23.08 24.021 39.554 27.566 27.849 5.994 57.2390004 4.679 84.4420004-3.778 9.421-2.929 18.785-6.824 26.105-13.438 10.525-9.509 15.662-23.504 19.598-37.13 6.37-22.046 10.609-44.708 12.639-67.566.926-10.433 1.39-20.9739997.008-31.3559997-3.899-29.266-23.911-56.313-51.492-66.848-21.615-8.25500002-45.607-6.40100002-68.6340004-4.14300002-19.053 1.86800002-30.847 10.15400002-42.749 24.53400002-11.317 13.672-31.878 22.661-40.43299998 37.903" fill="#274fcb" fill-opacity=".11" mask="url(#b)" opacity=".748675" transform="matrix(.66913061 -.74314483 .74314483 .66913061 -40.111588 119.014957)"/></g></svg>