<svg xmlns="http://www.w3.org/2000/svg" viewBox="389 442 160 160"><defs><style>.a{fill:#ea4c89;}.b{fill:#fff;}</style></defs><g transform="translate(389 442)"><path class="a" d="M160,150a10.029,10.029,0,0,1-10,10H10A10.029,10.029,0,0,1,0,150V10A10.029,10.029,0,0,1,10,0H150a10.029,10.029,0,0,1,10,10Z"/><path class="b" d="M89,18.2a70.9,70.9,0,1,0,71,70.9A71.027,71.027,0,0,0,89,18.2Zm46.95,32.7a60.348,60.348,0,0,1,13.7,37.75c-2-.4-22.05-4.5-42.25-1.95-.45-1.05-.85-2.1-1.3-3.15-1.25-2.95-2.6-5.9-4-8.75C124.5,65.65,134.65,52.6,135.95,50.9ZM89,28.65A60.372,60.372,0,0,1,129.2,43.9c-1.1,1.55-10.2,13.8-31.8,21.9A318.98,318.98,0,0,0,74.75,30.35,58.522,58.522,0,0,1,89,28.65ZM63.2,34.4A386.852,386.852,0,0,1,85.7,69.45a230.165,230.165,0,0,1-56.05,7.4A60.6,60.6,0,0,1,63.2,34.4ZM28.35,89.2c0-.6,0-1.25.05-1.85,2.65.05,32.05.45,62.35-8.6,1.75,3.4,3.4,6.85,4.9,10.3-.8.25-1.6.45-2.4.7-31.3,10.1-47.9,37.6-49.3,39.95A60.265,60.265,0,0,1,28.35,89.2ZM89,149.75a60.355,60.355,0,0,1-37.2-12.8c1.1-2.25,13.35-25.9,47.6-37.8a352.089,352.089,0,0,1,13.35,45.8C112.7,144.95,97.4,149.75,89,149.75Zm33.9-10.35a258.163,258.163,0,0,0-11.8-43.2,89.115,89.115,0,0,1,37.8,2.6A60.9,60.9,0,0,1,122.9,139.4Z" transform="translate(-9 -9.1)"/></g></svg>