<?xml version="1.0" encoding="utf-8"?>
<!-- Generator: Adobe Illustrator 21.0.2, SVG Export Plug-In . SVG Version: 6.00 Build 0)  -->
<svg version="1.1" id="Layer_1" xmlns="http://www.w3.org/2000/svg" xmlns:xlink="http://www.w3.org/1999/xlink" x="0px" y="0px"
	 viewBox="0 0 160 160" style="enable-background:new 0 0 160 160;" xml:space="preserve">
<style type="text/css">
	.st0{fill:#EA4C89;}
	.st1{fill:#FFFFFF;}
</style>
<g transform="translate(389 442)">
	<path class="st0" d="M-229-282h-160v-160h160V-282z"/>
	<path class="st1" d="M-309-432.9c-39.2,0.1-70.9,31.8-70.8,71c0.1,39.2,31.8,70.9,71,70.8c39.1-0.1,70.8-31.8,70.8-70.9
		C-238.1-401.2-269.8-432.9-309-432.9z M-262-400.2c8.7,10.7,13.6,24,13.7,37.8c-2-0.4-22.1-4.5-42.2-1.9c-0.4-1.1-0.9-2.1-1.3-3.1
		c-1.2-3-2.6-5.9-4-8.8C-273.5-385.5-263.4-398.5-262-400.2z M-309-422.5c14.8,0,29.1,5.4,40.2,15.2c-1.1,1.6-10.2,13.8-31.8,21.9
		c-6.8-12.3-14.3-24.1-22.6-35.5C-318.6-421.9-313.8-422.5-309-422.5z M-334.8-416.7c8.1,11.3,15.6,23,22.5,35.1
		c-18.3,4.8-37.1,7.2-56.1,7.4C-364.5-392.9-352-408.6-334.8-416.7z M-369.6-361.9c0-0.6,0-1.2,0-1.9c2.6,0,32.1,0.4,62.4-8.6
		c1.8,3.4,3.4,6.9,4.9,10.3c-0.8,0.2-1.6,0.4-2.4,0.7c-31.3,10.1-47.9,37.6-49.3,40C-364.1-332.5-369.7-346.9-369.6-361.9z
		 M-309-301.4c-13.5,0-26.6-4.5-37.2-12.8c1.1-2.2,13.4-25.9,47.6-37.8c5.5,14.9,9.9,30.2,13.4,45.8
		C-285.3-306.1-300.6-301.4-309-301.4z M-275.1-311.7c-2.7-14.7-6.6-29.2-11.8-43.2c12.6-1.9,25.5-1,37.8,2.6
		C-251.8-335.8-261.2-321.1-275.1-311.7z"/>
</g>
</svg>
