<?xml version="1.0" encoding="utf-8"?>
<!-- Generator: Adobe Illustrator 21.0.2, SVG Export Plug-In . SVG Version: 6.00 Build 0)  -->
<svg version="1.1" id="Layer_1" xmlns="http://www.w3.org/2000/svg" xmlns:xlink="http://www.w3.org/1999/xlink" x="0px" y="0px"
	 viewBox="0 0 160 160" style="enable-background:new 0 0 160 160;" xml:space="preserve">
<style type="text/css">
	.st0{fill:#EA4C89;}
</style>
<g transform="translate(389 442)">
	<path class="st0" d="M-309-418.7c-31.4,0.1-56.7,25.4-56.6,56.8c0.1,31.4,25.4,56.7,56.8,56.6c31.3-0.1,56.6-25.4,56.6-56.7
		C-252.3-393.4-277.6-418.7-309-418.7z M-271.4-392.6c7,8.6,10.9,19.2,11,30.2c-1.6-0.3-17.7-3.6-33.8-1.5c-0.3-0.9-0.7-1.7-1-2.5
		c-1-2.4-2.1-4.7-3.2-7C-280.6-380.8-272.5-391.2-271.4-392.6z M-309-410.4c11.8,0,23.3,4.3,32.2,12.2c-0.9,1.3-8.2,11-25.4,17.5
		c-5.4-9.8-11.4-19.3-18.1-28.4C-316.7-409.9-312.8-410.4-309-410.4z M-329.6-405.8c6.5,9,12.5,18.4,18,28.1
		c-14.6,3.8-29.7,5.8-44.9,5.9C-353.4-386.7-343.4-399.3-329.6-405.8z M-357.5-361.9c0-0.5,0-1,0-1.5c2.1,0,25.7,0.3,49.9-6.9
		c1.4,2.7,2.7,5.5,3.9,8.2c-0.6,0.2-1.3,0.3-1.9,0.6c-25,8.1-38.3,30.1-39.4,32C-353.1-338.4-357.5-349.9-357.5-361.9z M-309-313.5
		c-10.8,0-21.3-3.6-29.8-10.2c0.9-1.8,10.7-20.7,38.1-30.2c4.4,11.9,7.9,24.2,10.7,36.6C-290-317.3-302.3-313.5-309-313.5z
		 M-281.9-321.8c-2.2-11.8-5.3-23.4-9.4-34.6c10.1-1.5,20.4-0.8,30.2,2.1C-263.2-341-270.7-329.3-281.9-321.8z"/>
</g>
</svg>
