<?xml version="1.0" encoding="UTF-8"?>
<svg width="42px" height="34px" viewBox="0 0 42 34" version="1.1" xmlns="http://www.w3.org/2000/svg" xmlns:xlink="http://www.w3.org/1999/xlink">
    <!-- Generator: Sketch 48.2 (47327) - http://www.bohemiancoding.com/sketch -->
    <title>icon-twitter</title>
    <desc>Created with Sketch.</desc>
    <defs></defs>
    <g id="footer/site-wide" stroke="none" stroke-width="1" fill="none" fill-rule="evenodd" transform="translate(-698.000000, -43.000000)">
        <g id="twitter-copy" transform="translate(691.000000, 32.000000)">
            <g id="icon-twitter" transform="translate(3.000000, 3.000000)">
                <rect id="Rectangle" fill="#D8D8D8" opacity="0" x="0" y="0" width="50" height="50"></rect>
                <path d="M45.58,12.225 C44.04,12.89 42.395,13.345 40.715,13.555 C42.465,12.505 43.795,10.825 44.425,8.865 C42.78,9.845 40.96,10.545 39.07,10.93 C35.885,7.535 30.53,7.36 27.135,10.58 C24.93,12.645 24.02,15.725 24.685,18.63 C17.895,18.28 11.595,15.095 7.325,9.81 C5.085,13.66 6.24,18.595 9.95,21.08 C8.62,21.045 7.29,20.695 6.135,20.03 C6.1,24.09 8.935,27.59 12.89,28.395 C11.63,28.745 10.335,28.78 9.075,28.535 C10.16,31.965 13.345,34.345 16.95,34.415 C13.415,37.18 8.935,38.44 4.455,37.915 C8.305,40.4 12.785,41.73 17.405,41.73 C33.085,41.73 41.905,28.5 41.38,16.635 C42.99,15.41 44.425,13.94 45.58,12.225 Z" id="Shape" fill="#FFFFFF" fill-rule="nonzero"></path>
            </g>
        </g>
    </g>
</svg>