<?xml version="1.0" encoding="UTF-8"?>
<svg width="48px" height="48px" viewBox="0 0 48 48" version="1.1" xmlns="http://www.w3.org/2000/svg" xmlns:xlink="http://www.w3.org/1999/xlink">
    <!-- Generator: Sketch 48.2 (47327) - http://www.bohemiancoding.com/sketch -->
    <title>icon-dribbble</title>
    <desc>Created with Sketch.</desc>
    <defs></defs>
    <g id="footer/site-wide" stroke="none" stroke-width="1" fill="none" fill-rule="evenodd" transform="translate(-575.000000, -36.000000)">
        <g id="dribbble-copy" transform="translate(571.000000, 32.000000)">
            <g id="icon-dribbble" transform="translate(3.000000, 3.000000)">
                <rect id="Rectangle-2" x="0" y="0" width="50" height="50"></rect>
                <path d="M24.9661895,1 C11.6968181,1.03385044 0.966229431,11.7644391 1.00007987,25.0338105 C1.03393031,38.3031819 11.7645189,49.0337706 25.0338904,48.9999201 C38.2694114,48.9660697 49,38.2354811 49,24.9999601 C48.9661496,11.7305886 38.2355609,1 24.9661895,1 Z M40.875895,12.069093 C43.8208831,15.6910898 45.4795545,20.193198 45.513405,24.8645583 C44.8363962,24.7291566 38.0324583,23.3412886 31.2285204,24.2214 C31.0931187,23.8490452 30.9238665,23.5105408 30.7884647,23.1720365 C30.3822595,22.1565233 29.9083533,21.1748606 29.4344472,20.193198 C36.9830947,17.0451073 40.4019889,12.6445504 40.875895,12.069093 Z M24.9661895,4.52044548 C29.9760542,4.52044548 34.8166668,6.3483691 38.5740653,9.66571196 C38.2017105,10.207319 35.1213207,14.3370723 27.8096262,17.0789577 C25.5077965,12.9153539 22.9690137,8.92100233 20.1594274,5.06205248 C21.7165475,4.72354811 23.3413685,4.52044548 24.9661895,4.52044548 Z M16.2327767,6.48377085 C18.9746621,10.3088703 21.5134449,14.2693714 23.8491251,18.3652743 C17.654495,19.9900953 11.2906128,20.8025058 4.85902972,20.8702067 C6.17919678,14.5401749 10.4105014,9.22565627 16.2327767,6.48377085 Z M4.45282448,25.0338105 C4.45282448,24.8307079 4.45282448,24.6276053 4.45282448,24.3906522 C5.33293585,24.3906522 15.3188149,24.5260539 25.5754974,21.4795146 C26.1848052,22.6304295 26.7264122,23.8151948 27.2341688,24.9661096 C26.9633653,25.0338105 26.6925618,25.1015114 26.4217583,25.2030627 C15.8265714,28.6219569 10.2073988,37.9308271 9.7334927,38.7432376 C6.31459853,34.9858391 4.41897404,30.1113761 4.45282448,25.0338105 Z M24.9661895,45.5133251 C20.3963805,45.5133251 15.9619732,43.9900554 12.3738268,41.1804691 C12.7461816,40.4357595 16.9097854,32.4132058 28.486635,28.3850038 C30.348409,33.428719 31.8378283,38.6078359 33.0225936,43.8885041 C32.9887431,43.9223545 27.8096262,45.5133251 24.9661895,45.5133251 Z M36.4414878,42.02673 C35.5275259,37.0507158 34.2073589,32.1424023 32.4471361,27.4033411 C36.7122912,26.7601828 41.0789977,27.0648367 45.2426015,28.2834525 C44.3286396,33.8687746 41.1466985,38.8447889 36.4414878,42.02673 Z" id="Shape" fill="#FFFFFF" fill-rule="nonzero"></path>
            </g>
        </g>
    </g>
</svg>