<?xml version="1.0" encoding="utf-8"?>
<!-- Generator: Adobe Illustrator 21.0.2, SVG Export Plug-In . SVG Version: 6.00 Build 0)  -->
<svg version="1.1" id="Layer_1" xmlns="http://www.w3.org/2000/svg" xmlns:xlink="http://www.w3.org/1999/xlink" x="0px" y="0px"
	 viewBox="0 0 341 77" style="enable-background:new 0 0 341 77;" xml:space="preserve">
<style type="text/css">
	.st0{fill:#A4A8BF;}
	.st1{enable-background:new    ;}
	.st2{fill:#F7F7FA;}
</style>
<g transform="translate(1436)">
	<path class="st0" d="M-1102,56.3c0-0.2,0-0.4,0-0.5V21.2c0-11.4-8.3-20.7-18.5-20.7H-1417c-10.2,0-18.5,9.3-18.5,20.7v34.6
		c0,11.4,8.3,20.7,18.5,20.7h296.6c4.1,0,8.1-1.5,11.2-4.2c7,5.3,13.4,4.1,13.4,4.1c0.3,0,0.4-0.3,0.1-0.5c0,0-6.2-5.1-6.3-9.9
		C-1102.1,61.1-1102,56.3-1102,56.3L-1102,56.3z"/>
	<g class="st1">
		<path class="st2" d="M-1418.3,31.5h2v0.2c-0.1,0.1-0.2,0.2-0.2,0.3c0,0.1,0,0.3,0,0.6v5.3h5.9v-6.4h2v0.2
			c-0.1,0.1-0.2,0.2-0.2,0.3c0,0.1,0,0.3,0,0.6v13.9h-1.8v-7.1h-5.8v7.1h-1.8V31.5z"/>
		<path class="st2" d="M-1405.1,46.5v-1.4h2.8v-8.2h-2.7v-1.4h4.4v9.6h2.6v1.4H-1405.1z M-1402.4,32.9c-0.2-0.2-0.4-0.5-0.4-0.9
			c0-0.4,0.1-0.6,0.3-0.9c0.2-0.2,0.5-0.4,0.9-0.4c0.3,0,0.6,0.1,0.9,0.4c0.2,0.2,0.4,0.5,0.4,0.9s-0.1,0.6-0.4,0.9
			c-0.2,0.2-0.5,0.4-0.9,0.4S-1402.1,33.1-1402.4,32.9z"/>
		<path class="st2" d="M-1390.8,46.4c-0.3-0.3-0.4-0.6-0.4-1s0.1-0.7,0.4-1c0.3-0.3,0.6-0.4,1-0.4c0.4,0,0.7,0.1,1,0.4
			s0.4,0.6,0.4,1c0,0.4-0.1,0.7-0.4,1c-0.3,0.3-0.6,0.4-1,0.4C-1390.1,46.8-1390.5,46.6-1390.8,46.4z M-1390.9,32.2
			c0-0.6,0.1-1,0.3-1.3c0.2-0.3,0.5-0.5,0.9-0.5c0.8,0,1.2,0.7,1.2,2l-0.6,9.4h-1.2L-1390.9,32.2z"/>
		<path class="st2" d="M-1369.6,46.5v-1.4h3V33h-2.8v-1.4h7.4V33h-3v12.1h3.1v1.4H-1369.6z"/>
		<path class="st2" d="M-1355.5,37c0.4-0.4,0.8-0.9,1.1-1.3c0.3-0.5,0.4-0.9,0.4-1.2c0-0.1,0-0.3-0.1-0.4c-0.1-0.1-0.2-0.3-0.4-0.4
			c-0.2-0.2-0.4-0.4-0.5-0.5c-0.1-0.2-0.2-0.3-0.2-0.5c0-0.4,0.1-0.7,0.4-1c0.3-0.3,0.6-0.4,1-0.4c0.4,0,0.8,0.2,1.1,0.6
			s0.5,0.9,0.5,1.4c0,1.2-0.9,2.8-2.6,4.5L-1355.5,37z"/>
		<path class="st2" d="M-1346.6,35.5h1.6v1.1c0.3-0.4,0.6-0.7,1-1c0.4-0.2,0.8-0.4,1.2-0.4c0.5,0,0.9,0.2,1.3,0.5
			c0.4,0.3,0.6,0.7,0.7,1.2c0.2-0.5,0.5-0.9,1-1.2c0.4-0.3,0.9-0.4,1.5-0.4c0.7,0,1.3,0.3,1.6,0.8c0.4,0.5,0.5,1.2,0.5,2v8.4h-1.6
			v-7.8c0-0.9-0.1-1.5-0.3-1.8c-0.2-0.3-0.4-0.4-0.8-0.4c-0.3,0-0.6,0.1-0.8,0.4s-0.5,0.6-0.7,1s-0.3,0.8-0.3,1.3v7.2h-1.6v-7.6
			c0-0.9-0.1-1.5-0.3-1.8c-0.2-0.3-0.5-0.5-0.9-0.5c-0.2,0-0.5,0.1-0.7,0.3s-0.5,0.5-0.6,0.9c-0.2,0.4-0.2,0.8-0.2,1.4v7.3h-1.6
			V35.5z"/>
		<path class="st2" d="M-1322.5,46.5v-15h1.3l3.7,7.3l3.8-7.3h1.3v15h-1.6V35.2l-3.2,6h-0.6l-3-6v11.2H-1322.5z"/>
		<path class="st2" d="M-1309.1,46.5v-1.4h2.8v-8.2h-2.7v-1.4h4.4v9.6h2.6v1.4H-1309.1z M-1306.4,32.9c-0.2-0.2-0.4-0.5-0.4-0.9
			c0-0.4,0.1-0.6,0.3-0.9c0.2-0.2,0.5-0.4,0.9-0.4c0.3,0,0.6,0.1,0.9,0.4s0.4,0.5,0.4,0.9s-0.1,0.6-0.4,0.9s-0.5,0.4-0.9,0.4
			S-1306.1,33.1-1306.4,32.9z"/>
		<path class="st2" d="M-1289.7,43.9l1,1.2c-1.1,1.2-2.4,1.7-4,1.7c-1.1,0-2-0.2-2.8-0.7c-0.8-0.5-1.5-1.2-2-2.1s-0.7-1.9-0.7-2.9
			s0.2-2.1,0.7-2.9c0.5-0.9,1.1-1.5,2-2c0.8-0.5,1.8-0.7,2.8-0.7c0.9,0,1.7,0.2,2.4,0.5c0.7,0.4,1.3,0.9,1.8,1.5l-1.1,1.1l0,0
			c-0.5-0.6-0.9-1-1.4-1.3s-1.1-0.4-1.8-0.4c-0.6,0-1.2,0.2-1.7,0.5c-0.5,0.3-1,0.8-1.3,1.5s-0.5,1.3-0.5,2.2c0,0.8,0.2,1.6,0.5,2.2
			c0.3,0.7,0.8,1.2,1.4,1.5c0.6,0.4,1.2,0.6,2,0.6C-1291.5,45.2-1290.5,44.8-1289.7,43.9z M-1289.7,38.5L-1289.7,38.5l-0.2,0
			C-1289.9,38.4-1289.8,38.4-1289.7,38.5z M-1289.6,38.6c0,0-0.1-0.1-0.1-0.1l0,0C-1289.6,38.5-1289.5,38.6-1289.6,38.6z"/>
		<path class="st2" d="M-1285.7,30.5h1.9v0.2c-0.1,0.1-0.2,0.2-0.2,0.3c0,0.1,0,0.3,0,0.6v5.9c0.4-0.7,1-1.2,1.6-1.6
			c0.6-0.4,1.3-0.6,2-0.6c1,0,1.9,0.4,2.4,1.1c0.6,0.7,0.9,1.9,0.9,3.5v6.6h-1.7v-6.6c0-1.1-0.2-1.9-0.6-2.4s-0.9-0.7-1.5-0.7
			c-0.5,0-1,0.1-1.5,0.4c-0.5,0.3-0.9,0.7-1.2,1.2c-0.3,0.5-0.5,1.1-0.5,1.8v6.3h-1.7V30.5z"/>
		<path class="st2" d="M-1266.1,36.5c0.8,0.8,1.2,2.2,1.2,4.2v5.8h-1.9v-1.7c-0.7,1.3-1.9,1.9-3.7,1.9c-1.2,0-2.2-0.3-2.9-0.8
			c-0.7-0.6-1-1.3-1-2.2c0-0.8,0.2-1.4,0.7-2c0.5-0.6,1.2-1,2-1.3c0.8-0.3,1.8-0.5,2.8-0.5c0.9,0,1.7,0,2.5,0.1
			c-0.1-1.2-0.4-2.1-1-2.6c-0.6-0.5-1.4-0.8-2.5-0.8c-0.5,0-1.1,0.1-1.6,0.3c-0.5,0.2-1,0.5-1.4,0.9l-0.8-1.1c1-1,2.3-1.5,3.9-1.5
			C-1268.1,35.3-1266.9,35.7-1266.1,36.5z M-1267.5,44.4c0.7-0.7,1.1-1.7,1.1-3c-0.7-0.1-1.5-0.2-2.3-0.2c-1.2,0-2.2,0.2-2.9,0.6
			c-0.7,0.4-1.1,1-1.1,1.8c0,1.2,0.8,1.8,2.3,1.8C-1269.1,45.4-1268.1,45.1-1267.5,44.4z"/>
		<path class="st2" d="M-1260.9,45.3c-1-1-1.5-2.4-1.5-4.2c0-1.2,0.2-2.2,0.7-3.1s1.1-1.5,1.8-2c0.8-0.5,1.6-0.7,2.6-0.7
			c1.3,0,2.4,0.4,3.2,1.3c0.8,0.9,1.2,2.2,1.2,3.9c0,0.2,0,0.4,0,0.8h-7.8c0.1,1.3,0.4,2.4,1.1,3c0.7,0.7,1.6,1,2.6,1
			c1.2,0,2.1-0.4,2.8-1.2l1,0.9c-0.9,1.1-2.2,1.7-3.8,1.7S-1259.9,46.2-1260.9,45.3z M-1254.6,39.9c0-1-0.3-1.8-0.8-2.4
			c-0.5-0.6-1.2-0.9-2.1-0.9c-0.8,0-1.5,0.3-2.1,0.8c-0.6,0.6-1,1.4-1.1,2.5H-1254.6z"/>
		<path class="st2" d="M-1249.6,46.5v-1.4h3.2V31.9h-3.1v-1.4h4.8v14.6h3.2v1.4H-1249.6z"/>
	</g>
</g>
</svg>
