<svg xmlns="http://www.w3.org/2000/svg" viewBox="1985.5 225.5 341.004 77.019"><defs><style>.a{fill:#a4a8bf;stroke:rgba(0,0,0,0);}.b{fill:#f7f7fa;font-size:24px;font-family:Inconsolata-Regular, Inconsolata;}</style></defs><g transform="translate(1436)"><path class="a" d="M333.54,55.806q.006-.273.006-.547V20.708C333.547,9.277,325.278,0,315.079,0H18.468C8.266,0,0,9.271,0,20.708V55.259C0,66.69,8.268,75.967,18.468,75.967H315.079a17.138,17.138,0,0,0,11.171-4.216C333.292,77.028,339.7,75.9,339.7,75.9c.337-.033.4-.257.139-.489,0,0-6.171-5.106-6.291-9.94s0-9.669,0-9.669Z" transform="translate(550 226)"/><text class="b" transform="translate(566 272)"><tspan x="0" y="0">Hi! I’m Michael</tspan></text></g></svg>