<?xml version="1.0" encoding="utf-8"?>
<!-- Generator: Adobe Illustrator 21.0.2, SVG Export Plug-In . SVG Version: 6.00 Build 0)  -->
<svg version="1.1" id="Layer_1" xmlns="http://www.w3.org/2000/svg" xmlns:xlink="http://www.w3.org/1999/xlink" x="0px" y="0px"
	 viewBox="0 0 160 160" style="enable-background:new 0 0 160 160;" xml:space="preserve">
<style type="text/css">
	.st0{fill:#0877B6;}
</style>
<g transform="translate(800 442)">
	<path class="st0" d="M-758-412.3c-6.8,0-12.3,5.5-12.3,12.4c0,6.8,5.5,12.3,12.3,12.3s12.3-5.5,12.3-12.4
		C-745.7-406.8-751.2-412.3-758-412.3L-758-412.3z M-768.7-311.7h21v-66.9h-21V-311.7z M-693-380.8c0,0-16.6-1.2-20.8,11.2v-9.1h-21
		v66.9h21v-35.8c0-1.2,0.4-14.4,12.7-14.4c11.5,0,10.8,15.6,10.8,15.6v34.5h20.5v-38.8C-669.8-350.5-667.1-380.8-693-380.8z"/>
</g>
</svg>
