<svg xmlns="http://www.w3.org/2000/svg" viewBox="800 442 160 160"><defs><style>.a{fill:#0877b6;}.b{fill:#fff;}</style></defs><g transform="translate(800 442)"><path class="a" d="M160,150a10.029,10.029,0,0,1-10,10H10A10.029,10.029,0,0,1,0,150V10A10.029,10.029,0,0,1,10,0H150a10.029,10.029,0,0,1,10,10Z"/><path class="b" d="M71.7,59.4A12.35,12.35,0,1,0,84.05,71.75,12.3,12.3,0,0,0,71.7,59.4ZM61.05,160h21V93.1h-21V160Zm75.7-69.1s-16.6-1.2-20.75,11.25V93.1H95V160h21V124.25c0-1.2.35-14.45,12.7-14.45,11.45,0,10.75,15.65,10.75,15.65V160h20.5V121.2C159.9,121.2,162.6,90.9,136.75,90.9Z" transform="translate(-29.7 -29.7)"/></g></svg>