<?xml version="1.0" encoding="utf-8"?>
<!-- Generator: Adobe Illustrator 21.0.2, SVG Export Plug-In . SVG Version: 6.00 Build 0)  -->
<svg version="1.1" id="Layer_1" xmlns="http://www.w3.org/2000/svg" xmlns:xlink="http://www.w3.org/1999/xlink" x="0px" y="0px"
	 viewBox="0 0 160 160" style="enable-background:new 0 0 160 160;" xml:space="preserve">
<style type="text/css">
	.st0{fill:#FFFFFF;}
	.st1{fill:#00AA6C;}
	.st2{fill:#0BE270;}
	.st3{fill:#32FB8C;}
	.st4{fill:#15C667;}
</style>
<g transform="translate(1005 442)">
	<path class="st0" d="M-845-282h-160v-160h160V-282z"/>
	<g transform="translate(31 38.086)">
		<path class="st1" d="M-972.2-389.1c0,0.4,0,0.8,0,1.1v28.1c0,2.1-1.1,2.8-3,1.9l-27.6-13.8c-1.4-0.6-2.2-2-2.1-3.5v-64.5
			c0-1.8,0.7-2.1,2.2-1.4c9.8,4.9,19.8,9.9,29.6,14.8c0.4,0.1,0.7,0.3,0.9,0.6C-972.2-413.6-972.2-401.4-972.2-389.1z"/>
		<path class="st2" d="M-939.5-372.9c0,0-0.2,0-0.2,0c0-0.3-0.2-0.6-0.4-0.9c-2.6-4.2-5.1-8.4-7.8-12.6c-3.4-5.6-6.9-11.2-10.3-16.9
			c-1-1.5-1.9-3-2.7-4.5c6.9-11.1,13.8-22.4,20.6-33.5c0.5-0.9,1-0.9,1.9-0.5c10.2,5.1,20.3,10.1,30.5,15.2c0.2,0.1,0.6,0.2,0.8,0.6
			c0,0.3-0.1,0.6-0.2,0.9c-3,4.9-6.2,9.9-9.2,14.9c-3.1,5-6.2,10.1-9.2,15.1c-3.5,5.6-6.9,11.2-10.3,16.8
			C-937.5-376.5-938.5-374.7-939.5-372.9z"/>
		<path class="st3" d="M-939.5-372.9c1.1-1.8,2.1-3.6,3.2-5.4c3.5-5.6,6.9-11.2,10.3-16.9c3.1-5,6.2-10.1,9.2-15.1
			c3-4.9,6.2-9.9,9.2-14.9c0.2-0.3,0.3-0.6,0.2-0.9c0.3,0.2,0.2,0.6,0.2,0.9v65.2c0,1.9-1.2,2.6-2.9,1.8
			c-9.8-4.9-19.7-9.8-29.4-14.8C-939.4-372.8-939.5-372.8-939.5-372.9z"/>
		<path class="st4" d="M-961-407.7c0.8,1.5,1.7,3,2.7,4.5c3.5,5.6,6.9,11.2,10.3,16.9c2.6,4.2,5.2,8.4,7.8,12.6
			c0.2,0.3,0.3,0.5,0.4,0.9c-6.2-3.1-12.5-6.2-18.7-9.3l-13.8-6.9v-36.7c1.3,1.8,2.4,3.8,3.5,5.6c2.4,3.9,4.8,7.8,7.2,11.6
			C-961.4-408.3-961.2-408-961-407.7z"/>
	</g>
</g>
</svg>
