<svg xmlns="http://www.w3.org/2000/svg" viewBox="1005 442 160 160"><defs><style>.a{fill:#fff;}.b{fill:#00aa6c;}.c{fill:#0be270;}.d{fill:#32fb8c;}.e{fill:#15c667;}</style></defs><g transform="translate(1005 442)"><path class="a" d="M160,150a10.029,10.029,0,0,1-10,10H10A10.029,10.029,0,0,1,0,150V10A10.029,10.029,0,0,1,10,0H150a10.029,10.029,0,0,1,10,10Z"/><g transform="translate(31 38.086)"><path class="b" d="M94.75,129.34c0,.4-.05.75-.05,1.15v28.05c0,2.1-1.1,2.8-3,1.85l-27.6-13.8a3.53,3.53,0,0,1-2.1-3.5V78.54c0-1.75.65-2.15,2.2-1.4,9.85,4.9,19.75,9.85,29.6,14.75a1.468,1.468,0,0,1,.9.65C94.75,104.89,94.75,117.09,94.75,129.34Z" transform="translate(-62 -76.476)"/><path class="c" d="M171.5,145.286c-.05,0-.15-.05-.2-.05a1.682,1.682,0,0,0-.4-.85c-2.6-4.2-5.15-8.4-7.75-12.6-3.45-5.6-6.9-11.2-10.35-16.85a51.011,51.011,0,0,1-2.7-4.5c6.85-11.15,13.75-22.35,20.6-33.5.55-.85,1-.95,1.9-.5q15.225,7.575,30.45,15.25c.25.15.6.25.75.55a1.45,1.45,0,0,1-.25.9c-3.05,4.95-6.15,9.95-9.2,14.9-3.1,5-6.2,10.05-9.25,15.05-3.45,5.6-6.9,11.2-10.35,16.85C173.6,141.636,172.55,143.486,171.5,145.286Z" transform="translate(-106.05 -76.172)"/><path class="d" d="M192.9,161.3c1.1-1.8,2.15-3.6,3.25-5.4,3.45-5.6,6.9-11.25,10.35-16.85,3.1-5,6.2-10.05,9.25-15.05,3.05-4.95,6.15-9.95,9.2-14.9a1.365,1.365,0,0,0,.25-.9c.35.25.2.65.2.95v65.2c0,1.9-1.15,2.65-2.85,1.8q-14.775-7.35-29.45-14.75A.26.26,0,0,1,192.9,161.3Z" transform="translate(-127.45 -92.186)"/><path class="e" d="M138.8,126.6a51.016,51.016,0,0,0,2.7,4.5c3.45,5.65,6.9,11.25,10.35,16.85,2.6,4.2,5.15,8.4,7.75,12.6a2.233,2.233,0,0,1,.4.85c-6.25-3.1-12.45-6.2-18.7-9.3l-13.8-6.9V108.5c1.3,1.8,2.4,3.75,3.55,5.65,2.4,3.85,4.75,7.75,7.15,11.6A8.837,8.837,0,0,0,138.8,126.6Z" transform="translate(-94.75 -92.336)"/></g></g></svg>