<svg xmlns="http://www.w3.org/2000/svg" viewBox="1912 326 340 76"><defs><style>.a{fill:#f7f7fa;}.b{fill:#a4a8bf;font-size:24px;font-family:Inconsolata-Regular, Inconsolata;}</style></defs><g transform="translate(1436)"><path class="a" d="M-233.548,403.825v-35.1c0-11.469,8.556-20.727,19.156-20.727h295c10.6,0,19.156,9.258,19.156,20.727v34.545C99.761,414.742,91.2,424,80.6,424h-295a17.658,17.658,0,0,1-11.621-4.284c-7.279,5.251-13.92,4.146-13.92,4.146-.383,0-.383-.276-.128-.553,0,0,6.385-5.113,6.513-9.949.128-4.7,0-9.535,0-9.535Z" transform="translate(716.239 -22)"/><text class="b" transform="translate(497.729 372.436)"><tspan x="0" y="0">Nice to meet you, Mike</tspan></text></g></svg>