<?xml version="1.0" encoding="utf-8"?>
<!-- Generator: Adobe Illustrator 21.0.2, SVG Export Plug-In . SVG Version: 6.00 Build 0)  -->
<svg version="1.1" id="Layer_1" xmlns="http://www.w3.org/2000/svg" xmlns:xlink="http://www.w3.org/1999/xlink" x="0px" y="0px"
	 viewBox="0 0 340 76" style="enable-background:new 0 0 340 76;" xml:space="preserve">
<style type="text/css">
	.st0{fill:#F7F7FA;}
	.st1{enable-background:new    ;}
	.st2{fill:#A4A8BF;}
</style>
<g transform="translate(1436)">
	<path class="st0" d="M-1429.3,55.8V20.7c0-11.5,8.6-20.7,19.2-20.7h295c10.6,0,19.2,9.3,19.2,20.7v34.5c0,11.5-8.6,20.7-19.2,20.7
		h-295c-4.3,0-8.4-1.5-11.6-4.3c-7.3,5.3-13.9,4.1-13.9,4.1c-0.4,0-0.4-0.3-0.1-0.6c0,0,6.4-5.1,6.5-9.9
		C-1429.2,60.7-1429.3,55.8-1429.3,55.8L-1429.3,55.8z"/>
	<g class="st1">
		<path class="st2" d="M-1413.1,31.5h1.6l6.3,11.1V31.5h1.8v0.2c-0.1,0.1-0.2,0.2-0.2,0.3c0,0.1,0,0.3,0,0.6v13.9h-1.3l-6.6-11.8
			v11.8h-1.6V31.5z"/>
		<path class="st2" d="M-1399.9,46.4V45h2.8v-8.2h-2.7v-1.4h4.4V45h2.6v1.4H-1399.9z M-1397.2,32.8c-0.2-0.2-0.4-0.5-0.4-0.9
			c0-0.4,0.1-0.6,0.3-0.9c0.2-0.2,0.5-0.4,0.9-0.4c0.3,0,0.6,0.1,0.9,0.4c0.2,0.2,0.4,0.5,0.4,0.9s-0.1,0.6-0.4,0.9
			c-0.2,0.2-0.5,0.4-0.9,0.4S-1396.9,33-1397.2,32.8z"/>
		<path class="st2" d="M-1380.5,43.8l1,1.2c-1.1,1.2-2.4,1.7-4,1.7c-1.1,0-2-0.2-2.8-0.7c-0.8-0.5-1.5-1.2-2-2.1
			c-0.5-0.9-0.7-1.9-0.7-2.9s0.2-2.1,0.7-2.9c0.5-0.9,1.1-1.5,2-2c0.8-0.5,1.8-0.7,2.8-0.7c0.9,0,1.7,0.2,2.4,0.5
			c0.7,0.4,1.3,0.9,1.8,1.5l-1.1,1.1l0,0c-0.5-0.6-0.9-1-1.4-1.3c-0.5-0.2-1.1-0.4-1.8-0.4c-0.6,0-1.2,0.2-1.7,0.5
			c-0.5,0.3-1,0.8-1.3,1.5c-0.3,0.6-0.5,1.3-0.5,2.2c0,0.8,0.2,1.6,0.5,2.2s0.8,1.2,1.4,1.5c0.6,0.4,1.2,0.6,2,0.6
			C-1382.2,45.1-1381.3,44.7-1380.5,43.8z M-1380.5,38.4L-1380.5,38.4l-0.2,0C-1380.7,38.3-1380.6,38.3-1380.5,38.4z M-1380.3,38.5
			c0,0-0.1-0.1-0.1-0.1l0,0C-1380.3,38.5-1380.3,38.5-1380.3,38.5z"/>
		<path class="st2" d="M-1375.6,45.2c-1-1-1.5-2.4-1.5-4.2c0-1.2,0.2-2.2,0.7-3.1c0.4-0.9,1.1-1.5,1.8-2c0.8-0.5,1.6-0.7,2.6-0.7
			c1.3,0,2.4,0.4,3.2,1.3c0.8,0.9,1.2,2.2,1.2,3.9c0,0.2,0,0.4,0,0.8h-7.8c0.1,1.3,0.4,2.4,1.1,3c0.7,0.7,1.6,1,2.6,1
			c1.2,0,2.1-0.4,2.8-1.2l1,0.9c-0.9,1.1-2.2,1.7-3.8,1.7S-1374.7,46.2-1375.6,45.2z M-1369.3,39.9c0-1-0.3-1.8-0.8-2.4
			c-0.5-0.6-1.2-0.9-2.1-0.9c-0.8,0-1.5,0.3-2.1,0.8c-0.6,0.6-1,1.4-1.1,2.5H-1369.3z"/>
		<path class="st2" d="M-1343.6,45.4c-1.1,0.8-2.2,1.2-3.5,1.2c-1.2,0-2.1-0.4-2.6-1.1c-0.5-0.7-0.8-1.9-0.8-3.6c0-0.3,0-0.7,0-1.4
			l0.2-3.6h-2.4v-1.4h2.5l0.2-2.9l1.9-0.3l0.2,0l0,0.1c-0.1,0.2-0.2,0.3-0.3,0.4c-0.1,0.1-0.1,0.3-0.1,0.5l-0.3,2.2h3.6v1.4h-3.7
			l-0.2,3.7c0,0.6,0,1.1,0,1.3c0,1.3,0.1,2.1,0.4,2.6s0.8,0.7,1.4,0.7c0.5,0,0.9-0.1,1.3-0.3c0.4-0.2,0.9-0.5,1.4-0.8L-1343.6,45.4z
			"/>
		<path class="st2" d="M-1338.9,45.9c-0.8-0.5-1.4-1.2-1.8-2s-0.6-1.8-0.6-3c0-1.1,0.2-2.1,0.6-3c0.4-0.9,1-1.5,1.8-2
			c0.8-0.5,1.6-0.7,2.6-0.7c1,0,1.8,0.2,2.6,0.7c0.8,0.5,1.4,1.2,1.8,2c0.4,0.9,0.6,1.8,0.6,3c0,1.1-0.2,2.1-0.6,3s-1,1.5-1.8,2
			c-0.8,0.5-1.6,0.7-2.6,0.7C-1337.2,46.6-1338.1,46.4-1338.9,45.9z M-1334.6,44.6c0.5-0.4,0.9-0.9,1.2-1.5c0.3-0.6,0.4-1.4,0.4-2.2
			c0-1.2-0.3-2.3-0.9-3.1c-0.6-0.8-1.4-1.2-2.3-1.2s-1.7,0.4-2.3,1.2c-0.6,0.8-0.9,1.8-0.9,3.1c0,0.8,0.1,1.5,0.4,2.2
			c0.3,0.6,0.7,1.2,1.2,1.5s1,0.6,1.7,0.6S-1335.1,45-1334.6,44.6z"/>
		<path class="st2" d="M-1317.4,35.5h1.6v1.1c0.3-0.4,0.6-0.7,1-1c0.4-0.2,0.8-0.4,1.2-0.4c0.5,0,0.9,0.2,1.3,0.5
			c0.4,0.3,0.6,0.7,0.7,1.2c0.2-0.5,0.5-0.9,1-1.2c0.4-0.3,0.9-0.4,1.5-0.4c0.7,0,1.3,0.3,1.6,0.8c0.4,0.5,0.5,1.2,0.5,2v8.4h-1.6
			v-7.8c0-0.9-0.1-1.5-0.3-1.8c-0.2-0.3-0.4-0.4-0.8-0.4c-0.3,0-0.6,0.1-0.8,0.4s-0.5,0.6-0.7,1c-0.2,0.4-0.3,0.8-0.3,1.3v7.2h-1.6
			v-7.6c0-0.9-0.1-1.5-0.3-1.8c-0.2-0.3-0.5-0.5-0.9-0.5c-0.2,0-0.5,0.1-0.7,0.3s-0.5,0.5-0.6,0.9c-0.2,0.4-0.2,0.8-0.2,1.4v7.3
			h-1.6V35.5z"/>
		<path class="st2" d="M-1303.6,45.2c-1-1-1.5-2.4-1.5-4.2c0-1.2,0.2-2.2,0.7-3.1c0.4-0.9,1.1-1.5,1.8-2c0.8-0.5,1.6-0.7,2.6-0.7
			c1.3,0,2.4,0.4,3.2,1.3c0.8,0.9,1.2,2.2,1.2,3.9c0,0.2,0,0.4,0,0.8h-7.8c0.1,1.3,0.4,2.4,1.1,3c0.7,0.7,1.6,1,2.6,1
			c1.2,0,2.1-0.4,2.8-1.2l1,0.9c-0.9,1.1-2.2,1.7-3.8,1.7S-1302.7,46.2-1303.6,45.2z M-1297.3,39.9c0-1-0.3-1.8-0.8-2.4
			c-0.5-0.6-1.2-0.9-2.1-0.9c-0.8,0-1.5,0.3-2.1,0.8c-0.6,0.6-1,1.4-1.1,2.5H-1297.3z"/>
		<path class="st2" d="M-1291.6,45.2c-1-1-1.5-2.4-1.5-4.2c0-1.2,0.2-2.2,0.7-3.1c0.4-0.9,1.1-1.5,1.8-2c0.8-0.5,1.6-0.7,2.6-0.7
			c1.3,0,2.4,0.4,3.2,1.3c0.8,0.9,1.2,2.2,1.2,3.9c0,0.2,0,0.4,0,0.8h-7.8c0.1,1.3,0.4,2.4,1.1,3c0.7,0.7,1.6,1,2.6,1
			c1.2,0,2.1-0.4,2.8-1.2l1,0.9c-0.9,1.1-2.2,1.7-3.8,1.7S-1290.7,46.2-1291.6,45.2z M-1285.3,39.9c0-1-0.3-1.8-0.8-2.4
			c-0.5-0.6-1.2-0.9-2.1-0.9c-0.8,0-1.5,0.3-2.1,0.8c-0.6,0.6-1,1.4-1.1,2.5H-1285.3z"/>
		<path class="st2" d="M-1271.6,45.4c-1.1,0.8-2.2,1.2-3.5,1.2c-1.2,0-2.1-0.4-2.6-1.1c-0.5-0.7-0.8-1.9-0.8-3.6c0-0.3,0-0.7,0-1.4
			l0.2-3.6h-2.4v-1.4h2.5l0.2-2.9l1.9-0.3l0.2,0l0,0.1c-0.1,0.2-0.2,0.3-0.3,0.4c-0.1,0.1-0.1,0.3-0.1,0.5l-0.3,2.2h3.6v1.4h-3.7
			l-0.2,3.7c0,0.6,0,1.1,0,1.3c0,1.3,0.1,2.1,0.4,2.6s0.8,0.7,1.4,0.7c0.5,0,0.9-0.1,1.3-0.3c0.4-0.2,0.9-0.5,1.4-0.8L-1271.6,45.4z
			"/>
		<path class="st2" d="M-1247.6,35.5c-0.1,0.7-0.2,1.3-0.4,1.9c-0.2,0.6-0.5,1.5-0.9,2.5l-2.7,7.7c-0.4,1-0.8,1.8-1.4,2.2
			c-0.6,0.5-1.3,0.7-2.1,0.7c-1,0-1.9-0.3-2.5-0.9l0.7-1.2l0,0l0,0c0.3,0.2,0.5,0.4,0.8,0.5c0.3,0.1,0.6,0.2,1,0.2
			c0.6,0,1.1-0.2,1.4-0.6s0.7-1.1,1-2.1l-4.5-11h1.8l3.4,8.8l1.4-4.4c0.4-1.1,0.6-1.9,0.8-2.5s0.3-1.2,0.4-1.8H-1247.6z M-1257,48.4
			C-1257,48.4-1257,48.4-1257,48.4L-1257,48.4C-1257.1,48.4-1257.1,48.4-1257,48.4z M-1256.7,48.4
			C-1256.7,48.4-1256.7,48.5-1256.7,48.4h-0.2l0.1-0.1L-1256.7,48.4L-1256.7,48.4z"/>
		<path class="st2" d="M-1242.9,45.9c-0.8-0.5-1.4-1.2-1.8-2s-0.6-1.8-0.6-3c0-1.1,0.2-2.1,0.6-3c0.4-0.9,1-1.5,1.8-2
			s1.6-0.7,2.6-0.7s1.8,0.2,2.6,0.7c0.8,0.5,1.4,1.2,1.8,2c0.4,0.9,0.6,1.8,0.6,3c0,1.1-0.2,2.1-0.6,3s-1,1.5-1.8,2
			c-0.8,0.5-1.6,0.7-2.6,0.7S-1242.1,46.4-1242.9,45.9z M-1238.6,44.6c0.5-0.4,0.9-0.9,1.2-1.5c0.3-0.6,0.4-1.4,0.4-2.2
			c0-1.2-0.3-2.3-0.9-3.1c-0.6-0.8-1.4-1.2-2.3-1.2c-0.9,0-1.7,0.4-2.3,1.2c-0.6,0.8-0.9,1.8-0.9,3.1c0,0.8,0.1,1.5,0.4,2.2
			c0.3,0.6,0.7,1.2,1.2,1.5s1,0.6,1.7,0.6C-1239.6,45.2-1239.1,45-1238.6,44.6z"/>
		<path class="st2" d="M-1231.7,45.4c-0.7-0.9-1-2.1-1-3.8l0-6.1h1.7v6.1c0,1.3,0.2,2.3,0.7,2.8c0.5,0.6,1.1,0.9,1.8,0.9
			c0.8,0,1.5-0.3,2.1-1c0.6-0.6,0.9-1.6,0.9-2.8v-6h1.7v9.3c0,0.4,0,0.7,0,0.9s0.1,0.5,0.2,0.8h-1.7c-0.1-0.2-0.2-0.5-0.2-0.7
			c0-0.3,0-0.6,0-0.9c-0.4,0.6-0.8,1.1-1.4,1.4c-0.6,0.3-1.3,0.5-2,0.5C-1230.1,46.7-1231,46.3-1231.7,45.4z"/>
		<path class="st2" d="M-1218.3,49.7c0.4-0.4,0.8-0.9,1.1-1.3c0.3-0.5,0.4-0.9,0.4-1.2c0-0.1,0-0.3-0.1-0.4
			c-0.1-0.1-0.2-0.2-0.4-0.4c-0.2-0.2-0.4-0.4-0.5-0.5c-0.1-0.1-0.2-0.3-0.2-0.5c0-0.4,0.1-0.7,0.4-1c0.3-0.3,0.6-0.4,1-0.4
			c0.4,0,0.8,0.2,1.1,0.6s0.5,0.9,0.5,1.4c0,1.2-0.9,2.8-2.6,4.5L-1218.3,49.7z"/>
		<path class="st2" d="M-1197.3,46.4v-15h1.3l3.7,7.3l3.8-7.3h1.3v15h-1.6V35.2l-3.2,6h-0.6l-3-6v11.2H-1197.3z"/>
		<path class="st2" d="M-1183.9,46.4V45h2.8v-8.2h-2.7v-1.4h4.4V45h2.6v1.4H-1183.9z M-1181.2,32.8c-0.2-0.2-0.4-0.5-0.4-0.9
			c0-0.4,0.1-0.6,0.3-0.9c0.2-0.2,0.5-0.4,0.9-0.4c0.3,0,0.6,0.1,0.9,0.4s0.4,0.5,0.4,0.9s-0.1,0.6-0.4,0.9s-0.5,0.4-0.9,0.4
			S-1180.9,33-1181.2,32.8z"/>
		<path class="st2" d="M-1169.5,40.9l-1.4,1.3v4.2h-1.8v-16h2v0.2c-0.1,0.1-0.2,0.2-0.2,0.3c0,0.1,0,0.3,0,0.6v9l5.5-5.1
			c0.4,0.1,0.8,0.1,1.3,0.1h0.6l-4.6,4.3l5.4,6.6l-2.2,0.1L-1169.5,40.9z"/>
		<path class="st2" d="M-1159.6,45.2c-1-1-1.5-2.4-1.5-4.2c0-1.2,0.2-2.2,0.7-3.1c0.4-0.9,1.1-1.5,1.8-2s1.6-0.7,2.6-0.7
			c1.3,0,2.4,0.4,3.2,1.3c0.8,0.9,1.2,2.2,1.2,3.9c0,0.2,0,0.4,0,0.8h-7.8c0.1,1.3,0.4,2.4,1.1,3c0.7,0.7,1.6,1,2.6,1
			c1.2,0,2.1-0.4,2.8-1.2l1,0.9c-0.9,1.1-2.2,1.7-3.8,1.7C-1157.4,46.7-1158.7,46.2-1159.6,45.2z M-1153.3,39.9c0-1-0.3-1.8-0.8-2.4
			c-0.5-0.6-1.2-0.9-2.1-0.9c-0.8,0-1.5,0.3-2.1,0.8c-0.6,0.6-1,1.4-1.1,2.5H-1153.3z"/>
	</g>
</g>
</svg>
