<svg xmlns="http://www.w3.org/2000/svg" viewBox="0 0 940 940"><defs><style>.cls-1{fill:#f1f3fa;}.cls-2{fill:#fff;}.cls-3{fill:#2947c8;}.cls-4{fill:#dedfe5;}.cls-5{fill:#2c49c9;}.cls-6{fill:#969fbc;}</style></defs><title>nevermike</title><g id="Layer_2" data-name="Layer 2"><g id="Layer_1-2" data-name="Layer 1"><circle class="cls-1" cx="470" cy="470" r="470"/><path class="cls-2" d="M697.35,444.17c0-141.39-86.61-256-212.13-256-117.25,0-200.54,100-211,228.43l-27.85,12.9-10.83,32.09,7.53,31.25L279,506.58C295.48,592.4,346,661,417,687.9v33.41a76.3,76.3,0,0,0,1.38,14.45c6.34,32.84,33.84,49.55,66.8,49.55h0c33,0,60.47-16.71,66.81-49.55a76.3,76.3,0,0,0,1.38-14.45V687.9C641,654.76,697.35,558.18,697.35,444.17Z"/><path class="cls-3" d="M296.5,801.3a8,8,0,0,1-5-14.25c35.72-28.63,79-49.07,125.23-59.11a8,8,0,0,1,3.4,15.64c-43.8,9.51-84.82,28.86-118.63,56A8,8,0,0,1,296.5,801.3Z"/><path class="cls-3" d="M675.56,802.59a8,8,0,0,1-5-1.79c-34.12-27.77-75.68-47.56-120.18-57.22a8,8,0,0,1,3.4-15.64c46.94,10.2,90.82,31.1,126.88,60.45a8,8,0,0,1-5.05,14.2Z"/><path class="cls-4" d="M485.53,447.51c-.17,5.25-1.82,12.24-9.42,11.89,0,0-18.54-6.94-34.34-3.18-4.35,1-8.59-1.17-8.26-5.62.55-7.23,4.49-14.94,19.8-11.85,14.67,2.95,22.83,3.63,27.22,3.63A5,5,0,0,1,485.53,447.51Z"/><path class="cls-4" d="M593.5,446.5c0,14.49,41.54,9.55,47.43,2.75,4.23-4.89-4.09-13.33-18-10.58-13.37,2.64-20.82,3.24-24.82,3.24A4.56,4.56,0,0,0,593.5,446.5Z"/><path class="cls-5" d="M445.52,441.12c.17-9.54,7.65-17,16.69-16.73s16.23,8.26,16.05,17.8-7.46,6.79-16.5,6.5S445.34,450.65,445.52,441.12Z"/><path class="cls-4" d="M357.45,641.31c30.18,29.86,82.28,51.91,127.35,51.91,48,0,92-17.58,127.34-50.83,21.3-20.07,45.25-52.11,61.4-98.77C672,547.14,625.09,598,616,594.38c-6.1-2.42-10.35-7.91-14.5-13-6.06-7.43-12.91-10.89-21.36-15-16.38-7.86-34.77-11.54-52.88-11.78-42.06-.55-96.12,45.9-109.4,45-57.87-3.83-74-143.63-74-143.63L319.65,468.8S284.72,569.35,357.45,641.31Z"/><path class="cls-5" d="M629,440.46c-.57-9.52-8.34-16.69-17.37-16s-15.87,8.93-15.3,18.45,7.73,6.48,16.75,5.81S629.58,450,629,440.46Z"/><path class="cls-5" d="M543,539.76h0a4,4,0,0,1,0-8h0c7.5,0,15-4.68,18.68-11.65,3.44-6.53,3.55-15.58.28-22.51-1.61-3.42-4.75-7.74-10.52-8.93l-22.31-4.61a4,4,0,1,1,1.62-7.84l22.3,4.61c7,1.45,12.76,6.2,16.14,13.36a34.3,34.3,0,0,1-.43,29.65A29.65,29.65,0,0,1,543,539.76Z"/><path class="cls-5" d="M534.67,597.4c-15.14,0-23.88-3.6-28.54-6.61a4,4,0,0,1,4.34-6.72c3.76,2.43,11,5.33,24.2,5.33,13.64,0,21.83-3.1,26.3-5.7a4,4,0,1,1,4,6.91C559.67,593.71,550.09,597.4,534.67,597.4Z"/><path class="cls-6" d="M475.26,404.06,432,407.88a4,4,0,0,1-4.23-3.44h0a4.18,4.18,0,0,1,3.2-4.86l42.53-8.05a4,4,0,0,1,4.6,3.38l.72,4.24A4.15,4.15,0,0,1,475.26,404.06Z"/><path class="cls-1" d="M563,133.07c-78.15-26.79-151.8,15.63-151.8,15.63L343.09,161,316.3,230.19c-82.83,35.72-78.27,214-78.27,214s12.8-24,31.28-24c51.07,0,45.65,46.36,50.34,48.62s17-14.88,17-14.88L324.11,353c-5.58-40.19,26.8-56.56,26.8-56.56a75.52,75.52,0,0,0,42.3-10.5l-.72,6.78s78.14,19.43,175.86-4.85c66.27-16.46,98.28,20.61,107,43.5a61.61,61.61,0,0,0-3.31-6.9c2.52,5.05,19.78,61.84,19.78,61.84L697.35,430C749.42,156.51,563,133.07,563,133.07Z"/><path class="cls-6" d="M591,404.06l43.24,3.82a4,4,0,0,0,4.24-3.44h0a4.18,4.18,0,0,0-3.21-4.86l-42.52-8.05a4,4,0,0,0-4.61,3.38l-.72,4.24A4.15,4.15,0,0,0,591,404.06Z"/><path class="cls-5" d="M291.13,459.8a2,2,0,0,0-2.8-.42l-8.87,6.56-6.23-9.4a2,2,0,1,0-3.33,2.21l6.34,9.57-9,6.68a2,2,0,0,0,1.19,3.6,1.94,1.94,0,0,0,1.18-.39l8.87-6.55,6.23,9.4a2,2,0,0,0,1.67.89,2,2,0,0,0,1.11-.33,2,2,0,0,0,.56-2.77l-6.35-9.57,9-6.68A2,2,0,0,0,291.13,459.8Z"/><path class="cls-1" d="M280.32,507.5l-25.26-7.05s9.6,129.82,77.11,122h0C307.12,591,289.22,551.59,280.32,507.5Z"/><path class="cls-5" d="M705.2,431.5c19.36-101.67,8.68-181.4-31.74-237C631.69,137.08,573,126.47,564.85,125.26c-42-14.18-82.45-9-109.07-2.17a217.66,217.66,0,0,0-47.31,18L337.25,153.9,310,224.27c-19.25,9.28-35.39,26.34-48,50.75-10.28,19.92-18.28,44.85-23.78,74.08A508.47,508.47,0,0,0,230,442.52a53.65,53.65,0,0,0-4.53,21.65A53,53,0,0,0,246.6,506.7c1.74,17.16,10.64,85,44.74,113.24,10.17,8.41,21.65,12.65,34.2,12.65.73,0,1.46,0,2.19-.07a233.32,233.32,0,0,0,16.92,18.31A203.35,203.35,0,0,0,409,693.38v27.93a84.48,84.48,0,0,0,1.52,16c6.67,34.56,35.28,56,74.66,56s68-21.47,74.66-56a84.41,84.41,0,0,0,1.53-16v-28c31.67-13,60-34.35,83.17-63,39.19-48.61,60.77-114.68,60.77-186,0-4.09-.09-8.16-.23-12.21ZM301.55,607.62c-13.43-11.1-24.48-32.72-31.95-62.52a294.82,294.82,0,0,1-5.87-30.33,47.15,47.15,0,0,0,9,1.3c8.08,37,22.22,70.39,41.66,98.78A39,39,0,0,1,301.55,607.62ZM545.41,721.31a68.84,68.84,0,0,1-1.23,12.93h0c-5.2,27-27.24,43.06-58.95,43.06s-53.74-16.1-59-43.07A68.92,68.92,0,0,1,425,721.31V699.14a204.11,204.11,0,0,0,120.37-.09Zm86.72-101.14c-18.31,22.71-40,40.46-64.4,52.73a181.89,181.89,0,0,1-82.51,19.27c-49,0-93.77-18.27-129.43-52.83-32.73-31.72-55.81-74.86-67.08-125.19a49.43,49.43,0,0,0,23.61-15.53,8,8,0,0,0-12.22-10.33,32.81,32.81,0,0,1-25,11.87,32,32,0,0,1-16.71-4.75c-10.46-6.41-17-18.38-17-31.24a37.76,37.76,0,0,1,3.75-16.47,55.55,55.55,0,0,1,8.54-11.31,32.32,32.32,0,0,1,19.09-8.12c27.47,1.31,33.17,18,36.58,35,1.18,5.88,2.11,10.52,6.75,12.76,8.29,4,16.23-4.7,19.61-8.41a112.14,112.14,0,0,0,7.32-9l1.82-2.54L332.05,352v-.12c-4.07-29.31,15-43.71,20.86-47.38l2.06,0c37.27,0,62.25-24.89,73.26-38.72a136.59,136.59,0,0,0,34.31,14.06,166.64,166.64,0,0,0,42.38,5.25,208.26,208.26,0,0,0,30.73-2.35c24.46-3.66,50.44-11.61,77.51-23.71,36.48,13.17,61.1,87.55,69.41,122.67,4.15,23.11,6.79,62.45,6.79,62.45C689.35,511.88,669,574.39,632.13,620.17ZM697.1,374a418.31,418.31,0,0,0-17.26-53c-14.16-34.82-30.46-58.43-48.61-70.52,2.82-1.43,5.66-2.88,8.51-4.4a8,8,0,1,0-7.52-14.12c-62,33-118.89,44.31-164.5,32.75a120,120,0,0,1-32.09-13.12L425.87,245a62.6,62.6,0,0,1-8.58-7.68,8,8,0,0,0-12.23,10.32,71.92,71.92,0,0,0,9.83,9.12c-10,12.12-32.13,33.36-63.56,31.7l-2.13-.12-1.91,1c-13,6.55-36.11,28.51-31.11,64.74l12.09,97.68c-1.29,1.66-2.64,3.27-3.92,4.69-1.55-7.11-4.28-16.88-10.87-25.43a44.92,44.92,0,0,0-17-13.48,8.1,8.1,0,0,0-1.83-1.15,47.58,47.58,0,0,0-19.48-4.15c-.85,0-1.69,0-2.53.07-1.08,0-2.18-.07-3.29-.07-9.05,0-16.81,4.18-22.94,9.33a492.79,492.79,0,0,1,7.6-69.46c8-42.82,25.94-97.46,65.5-114.51l3.08-1.33,26.38-68.15,63.67-11.49,1.37-.25,1.2-.68c.71-.41,71.58-40.24,145.22-15l.78.27.82.1c.58.07,58.54,7.94,98.53,62.93C690.86,245.66,703.1,302.7,697.1,374Z"/><path class="cls-6" d="M513.93,612.93l.77-.34a56.59,56.59,0,0,1,5.74-2.41,45.8,45.8,0,0,1,12.21-2.33,45.22,45.22,0,0,1,19.05,3.07c2.27.91,4.62,2.15,5.33,4.67a5.7,5.7,0,0,1-1,5,7.74,7.74,0,0,1-6.58,2.46,26.5,26.5,0,0,1-7-1.85c-6.94-2.42-16.34-3-23.31-.46-1.71.63-3.39,1.52-5.21,1.48-3.17-.07-5.79-4.72-3.47-7.24A9.8,9.8,0,0,1,513.93,612.93Z"/><path class="cls-5" d="M313.43,232.82c-7-7.66-29.43-28.11-39.84-21.75a3.89,3.89,0,1,1-4-6.65c7.91-4.83,18.85-2.19,32.51,7.86,1.09.79,2.14,1.6,3.16,2.41a85.46,85.46,0,0,1-2.89-21.08,3.89,3.89,0,0,1,7.78-.14c.39,22.49,9.19,34.22,9.28,34.34Z"/><path class="cls-5" d="M538.73,241.83c-11.34,0-16.32-3-17.37-3.7a3.89,3.89,0,0,1,4.37-6.44c.53.31,22.27,12.36,91.16-23.28a3.89,3.89,0,1,1,3.58,6.91C578.94,236.81,553.47,241.83,538.73,241.83Z"/><path class="cls-5" d="M352.41,274.21q-2.27,0-4.68-.24a3.89,3.89,0,0,1,.77-7.75c21.85,2.19,29.24-13.76,29.54-14.44a3.89,3.89,0,0,1,7.13,3.12C382.13,261.91,371.54,274.21,352.41,274.21Z"/><path class="cls-5" d="M411.19,179.38a3.89,3.89,0,0,1-1.9-7.29c.83-.46,20.67-11.43,49.77-18.49,27-6.54,67.17-10.7,105.53,6.62a3.9,3.9,0,0,1-3.21,7.1c-69.7-31.48-147.52,11.14-148.3,11.57A3.81,3.81,0,0,1,411.19,179.38Z"/><path class="cls-5" d="M306.21,403.57a3.88,3.88,0,0,1-3.7-2.69c-2.34-7.17-12.49-9.49-20.6-10.17a93.58,93.58,0,0,0-18.74.5,3.9,3.9,0,0,1-1.12-7.71,101,101,0,0,1,20.51-.54c10.46.87,23.69,4.28,27.35,15.51a3.9,3.9,0,0,1-2.5,4.91A3.86,3.86,0,0,1,306.21,403.57Z"/><path class="cls-5" d="M306.21,379.53a3.88,3.88,0,0,1-3.49-2.17c-2.1-4.25-14.22-6.42-21.76-6.55A3.9,3.9,0,0,1,281,363h.06a75.11,75.11,0,0,1,11.73,1.3c8.92,1.75,14.6,5,16.88,9.59a3.89,3.89,0,0,1-3.49,5.62Z"/><path class="cls-4" d="M666.13,814c-29.4-23.92-64.75-41.86-102.61-52.13a72.4,72.4,0,0,1-26.8,32.28c-14,9.26-31.53,14.15-50.84,14.15s-36.88-4.89-50.83-14.15a72.4,72.4,0,0,1-26.8-32.28,279.1,279.1,0,0,0-101.09,50.91,16,16,0,0,1-3.55,2.14C322,845.31,396.64,868,485.88,868c88.91,0,163.29-22.55,182.07-52.74A15.12,15.12,0,0,1,666.13,814Z"/></g></g></svg>