<svg xmlns="http://www.w3.org/2000/svg" viewBox="594 442 160 160"><defs><style>.a{fill:#55acee;}.b{fill:#fff;}</style></defs><g transform="translate(594 442)"><path class="a" d="M160,150a10.029,10.029,0,0,1-10,10H10A10.029,10.029,0,0,1,0,150V10A10.029,10.029,0,0,1,10,0H150a10.029,10.029,0,0,1,10,10Z"/><path class="b" d="M160.05,75.8a49.4,49.4,0,0,1-13.85,3.8,24.311,24.311,0,0,0,10.6-13.35,48.824,48.824,0,0,1-15.3,5.85,24.141,24.141,0,0,0-41.1,22A68.29,68.29,0,0,1,50.75,68.9a24.2,24.2,0,0,0,7.45,32.2,23.684,23.684,0,0,1-10.9-3,24.189,24.189,0,0,0,19.35,23.95,23.453,23.453,0,0,1-10.9.4,24.073,24.073,0,0,0,22.5,16.75,48.463,48.463,0,0,1-35.65,10,68.139,68.139,0,0,0,36.95,10.85c44.75,0,70-37.8,68.5-71.7A51.145,51.145,0,0,0,160.05,75.8Z" transform="translate(-21.3 -32.25)"/></g></svg>