<?xml version="1.0" encoding="utf-8"?>
<!-- Generator: Adobe Illustrator 21.0.2, SVG Export Plug-In . SVG Version: 6.00 Build 0)  -->
<svg version="1.1" id="Layer_1" xmlns="http://www.w3.org/2000/svg" xmlns:xlink="http://www.w3.org/1999/xlink" x="0px" y="0px"
	 viewBox="0 0 160 160" style="enable-background:new 0 0 160 160;" xml:space="preserve">
<style type="text/css">
	.st0{fill:#55ACEE;}
	.st1{fill:#FFFFFF;}
</style>
<g transform="translate(594 442)">
	<path class="st0" d="M-594-282v-160h160v160H-594z"/>
	<path class="st1" d="M-455.2-398.5c-4.4,1.9-9.1,3.2-13.9,3.8c5-3,8.8-7.8,10.6-13.4c-4.7,2.8-9.9,4.8-15.3,5.9
		c-9.1-9.7-24.4-10.2-34.1-1c-6.3,5.9-8.9,14.7-7,23c-19.4-1-37.4-10.1-49.6-25.2c-6.4,11-3.1,25.1,7.5,32.2
		c-3.8-0.1-7.6-1.1-10.9-3c-0.1,11.6,8,21.6,19.3,23.9c-3.6,1-7.3,1.1-10.9,0.4c3.1,9.8,12.2,16.6,22.5,16.8
		c-10.1,7.9-22.9,11.5-35.7,10c11,7.1,23.8,10.9,37,10.9c44.8,0,70-37.8,68.5-71.7C-462.6-389.4-458.5-393.6-455.2-398.5z"/>
</g>
</svg>
