<?xml version="1.0" encoding="utf-8"?>
<!-- Generator: Adobe Illustrator 21.0.2, SVG Export Plug-In . SVG Version: 6.00 Build 0)  -->
<svg version="1.1" id="Layer_1" xmlns="http://www.w3.org/2000/svg" xmlns:xlink="http://www.w3.org/1999/xlink" x="0px" y="0px"
	 viewBox="0 0 160 160" style="enable-background:new 0 0 160 160;" xml:space="preserve">
<style type="text/css">
	.st0{fill:#55ACEE;}
</style>
<g transform="translate(594 442)">
	<path class="st0" d="M-461.1-394.8c-4,1.7-8.2,2.9-12.5,3.4c4.5-2.7,7.9-7,9.5-12.1c-4.2,2.5-8.9,4.3-13.8,5.3
		c-8.2-8.7-22-9.2-30.7-0.9c-5.7,5.3-8,13.2-6.3,20.7c-17.5-0.9-33.7-9.1-44.6-22.7c-5.8,9.9-2.8,22.6,6.8,29
		c-3.4-0.1-6.8-1-9.8-2.7c-0.1,10.4,7.2,19.4,17.4,21.5c-3.2,0.9-6.6,1-9.8,0.4c2.8,8.8,11,14.9,20.2,15.1
		c-9.1,7.1-20.6,10.4-32.1,9c9.9,6.4,21.4,9.8,33.3,9.8c40.3,0,63-34,61.7-64.5C-467.7-386.7-464-390.4-461.1-394.8z"/>
</g>
</svg>
