<?xml version="1.0" encoding="utf-8"?>
<!-- Generator: Adobe Illustrator 21.0.2, SVG Export Plug-In . SVG Version: 6.00 Build 0)  -->
<svg version="1.1" id="Layer_1" xmlns="http://www.w3.org/2000/svg" xmlns:xlink="http://www.w3.org/1999/xlink" x="0px" y="0px"
	 viewBox="0 0 157.5 77" style="enable-background:new 0 0 157.5 77;" xml:space="preserve">
<style type="text/css">
	.st0{fill:#A4A8BF;}
	.st1{enable-background:new    ;}
	.st2{fill:#F7F7FA;}
</style>
<g transform="translate(-173)">
	<path class="st0" d="M323.5,55.8c0-0.2,0-0.4,0-0.5V20.7C323.5,9.3,315.2,0,305,0H192c-10.2,0-18.5,9.3-18.5,20.7v34.6
		c0,11.4,8.3,20.7,18.5,20.7H305c4.1,0,8.1-1.5,11.2-4.2c7,5.3,13.5,4.1,13.5,4.1c0.3,0,0.4-0.3,0.1-0.5c0,0-6.2-5.1-6.3-9.9
		S323.5,55.8,323.5,55.8L323.5,55.8z"/>
	<g class="st1">
		<path class="st2" d="M192.9,33.4v-1.3h6.1v1.3H192.9z"/>
		<path class="st2" d="M211,48l-7.5-16.2l1.4-0.7l7.5,16.3L211,48z"/>
		<path class="st2" d="M214.8,48.9v-1.5h10.3v1.5H214.8z"/>
		<path class="st2" d="M232,48.7c-1-1.1-1.8-2.2-2.3-3.6c-0.5-1.3-0.8-2.7-0.8-4.1s0.3-2.8,0.8-4.1c0.5-1.3,1.3-2.5,2.2-3.5
			c1-1,2.1-1.8,3.4-2.4l0.5,1.5c-1.6,0.8-2.8,2-3.8,3.6c-0.9,1.5-1.4,3.2-1.4,5c0,1.8,0.5,3.5,1.4,5c1,1.6,2.2,2.8,3.9,3.6l-0.5,1.4
			C234.1,50.6,233,49.7,232,48.7z"/>
	</g>
	<g class="st1">
		<path class="st2" d="M245.8,38.6l-1.7,1c-0.6-1.2-1.2-2.3-1.7-3.2c-0.6-1.2-1.3-2.2-2-3.2l1.6-1C243.3,34,244.5,36.1,245.8,38.6z
			 M259.4,31.5c-0.8,4.3-2.2,7.9-4.1,10.8c-2.3,3.3-5.4,5.7-9.3,7.2l-1.2-1.6c3.7-1.4,6.6-3.6,8.7-6.6c1.8-2.6,3.1-6,3.9-10.1
			L259.4,31.5z M251.3,36.7l-1.6,1c-0.8-1.5-1.4-2.6-1.7-3.2c-0.6-1.1-1.3-2.2-1.9-3.2l1.6-0.9C248.8,32.1,250,34.1,251.3,36.7z"/>
	</g>
	<g class="st1">
		<path class="st2" d="M264.7,49.7c1.6-0.8,2.9-2.1,3.9-3.6c1-1.6,1.4-3.2,1.4-5c0-1.8-0.5-3.4-1.4-5c-0.9-1.5-2.2-2.7-3.8-3.6
			l0.5-1.5c1.3,0.6,2.4,1.4,3.4,2.4c1,1,1.7,2.2,2.2,3.5c0.5,1.3,0.8,2.6,0.8,4.1s-0.3,2.8-0.8,4.1c-0.5,1.3-1.3,2.5-2.3,3.6
			c-1,1.1-2.1,1.9-3.5,2.5L264.7,49.7z"/>
		<path class="st2" d="M274.8,48.9v-1.5h10.3v1.5H274.8z"/>
		<path class="st2" d="M288.9,48l-1.4-0.7L295,31l1.4,0.7L288.9,48z"/>
		<path class="st2" d="M300.9,33.4v-1.3h6.1v1.3H300.9z"/>
	</g>
</g>
</svg>
