<svg xmlns="http://www.w3.org/2000/svg" viewBox="2169.04 425.5 157.463 77.019"><defs><style>.a{fill:#a4a8bf;stroke:rgba(0,0,0,0);}.b,.c,.d,.e{fill:#f7f7fa;}.b{opacity:0.8;}.c{opacity:0.6;}.e{font-size:24px;font-family:Inconsolata-Regular, Inconsolata;}.f{font-family:PingFangSC-Regular, PingFang SC;}</style></defs><g transform="translate(1436)"><path class="a" d="M333.54,55.806q.006-.273.006-.547V20.708C333.547,9.277,325.278,0,315.079,0H202.008c-10.2,0-18.468,9.271-18.468,20.708V55.259c0,11.431,8.268,20.708,18.468,20.708H315.079a17.138,17.138,0,0,0,11.171-4.216C333.292,77.028,339.7,75.9,339.7,75.9c.337-.033.4-.257.139-.489,0,0-6.171-5.106-6.291-9.94s0-9.669,0-9.669Z" transform="translate(550 426)"/><circle class="b" cx="7" cy="7" r="7" transform="translate(804.5 457.5)"/><circle class="c" cx="7" cy="7" r="7" transform="translate(826.5 457.5)"/><circle class="d" cx="7" cy="7" r="7" transform="translate(782.5 457.5)"/><g transform="translate(-173)"><path class="a" d="M333.54,55.806q.006-.273.006-.547V20.708C333.547,9.277,325.278,0,315.079,0H202.008c-10.2,0-18.468,9.271-18.468,20.708V55.259c0,11.431,8.268,20.708,18.468,20.708H315.079a17.138,17.138,0,0,0,11.171-4.216C333.292,77.028,339.7,75.9,339.7,75.9c.337-.033.4-.257.139-.489,0,0-6.171-5.106-6.291-9.94s0-9.669,0-9.669Z" transform="translate(723 426)"/><text class="e" transform="translate(923 473)"><tspan x="0" y="0">¯\_(</tspan><tspan class="f" y="0">ツ</tspan><tspan y="0">)_/¯</tspan></text></g></g></svg>